<?xml version="1.0" standalone="no"?>
<!DOCTYPE svg PUBLIC "-//W3C//DTD SVG 20010904//EN"
 "http://www.w3.org/TR/2001/REC-SVG-20010904/DTD/svg10.dtd">
<svg version="1.0" xmlns="http://www.w3.org/2000/svg"
 width="4338.000000pt" height="4338.000000pt" viewBox="0 0 4338.000000 4338.000000"
 preserveAspectRatio="xMidYMid meet">
<metadata>
Created by potrace 1.15, written by Peter Selinger 2001-2017
</metadata>
<g transform="translate(0.000000,4338.000000) scale(0.100000,-0.100000)"
fill="#000000" stroke="none">
<path d="M21395 38140 c-1069 -89 -1661 -617 -1809 -1615 -40 -269 -45 -655
-11 -939 135 -1138 838 -1706 2110 -1706 1423 0 2135 712 2135 2135 0 1272
-566 1972 -1706 2110 -155 19 -566 27 -719 15z"/>
<path d="M12355 28830 c-412 -31 -736 -129 -997 -302 -128 -85 -296 -254 -381
-384 -148 -224 -239 -491 -283 -829 -21 -163 -25 -589 -6 -750 96 -823 494
-1309 1218 -1489 494 -123 1167 -93 1595 69 485 185 794 543 929 1080 104 411
102 996 -4 1405 -79 305 -202 527 -400 726 -315 314 -738 463 -1364 478 -103
3 -241 1 -307 -4z"/>
<path d="M16965 28833 c-224 -10 -477 -54 -657 -113 -629 -207 -975 -670
-1070 -1430 -20 -160 -17 -634 5 -785 67 -457 210 -778 457 -1025 248 -248
585 -397 1035 -456 163 -22 608 -25 765 -6 482 60 814 204 1076 466 201 202
326 434 403 746 99 404 101 952 6 1355 -115 485 -377 835 -775 1035 -324 163
-757 237 -1245 213z"/>
<path d="M21451 28829 c-314 -20 -577 -84 -816 -199 -467 -225 -741 -635 -837
-1253 -28 -186 -36 -587 -14 -789 49 -465 187 -813 426 -1071 333 -360 872
-536 1575 -514 607 19 1029 170 1336 476 244 245 385 549 451 976 25 165 36
584 19 760 -68 716 -353 1181 -872 1424 -238 111 -491 170 -824 191 -177 11
-260 11 -444 -1z"/>
<path d="M30548 28830 c-886 -66 -1413 -462 -1603 -1205 -121 -474 -107 -1105
35 -1536 84 -255 193 -435 369 -609 64 -63 150 -138 191 -165 229 -153 520
-251 875 -297 153 -19 610 -16 765 5 671 94 1082 362 1321 860 87 183 138 369
176 637 21 155 24 612 5 765 -46 355 -144 646 -297 875 -74 111 -260 295 -375
370 -235 153 -508 245 -846 285 -160 19 -466 26 -616 15z"/>
<path d="M16905 24174 c-408 -40 -690 -125 -919 -278 -354 -236 -554 -588
-633 -1115 -25 -166 -25 -656 0 -826 60 -398 191 -694 406 -918 240 -250 554
-394 986 -453 159 -22 598 -25 745 -6 264 35 453 88 647 182 413 201 670 568
767 1097 44 238 54 642 22 887 -110 847 -562 1300 -1411 1416 -80 11 -535 21
-610 14z"/>
<path d="M21450 24174 c-805 -71 -1271 -403 -1474 -1052 -74 -236 -101 -477
-93 -835 9 -400 63 -661 194 -921 229 -457 633 -709 1263 -788 137 -17 553
-17 690 0 591 74 979 297 1216 699 185 313 268 742 243 1261 -45 952 -494
1479 -1374 1613 -125 20 -543 34 -665 23z"/>
<path d="M26000 24174 c-507 -45 -860 -185 -1121 -444 -245 -244 -388 -580
-440 -1030 -18 -156 -15 -538 5 -694 90 -699 407 -1128 979 -1325 249 -86 453
-115 807 -115 355 0 549 27 805 112 228 75 410 188 570 353 220 227 348 513
412 919 26 166 26 674 0 840 -113 726 -469 1145 -1115 1314 -185 49 -343 67
-612 71 -135 1 -265 1 -290 -1z"/>
<path d="M21335 19505 c-230 -28 -440 -90 -614 -181 -420 -217 -655 -606 -722
-1189 -16 -137 -16 -485 0 -625 76 -674 385 -1096 940 -1280 235 -79 423 -105
751 -104 277 0 409 14 611 65 280 71 481 179 660 358 228 227 361 536 410 951
19 158 16 528 -5 685 -107 795 -546 1227 -1344 1320 -157 19 -533 18 -687 0z"/>
<path d="M16960 14864 c-472 -41 -761 -151 -995 -375 -289 -277 -417 -652
-417 -1214 0 -560 127 -933 414 -1211 137 -133 276 -214 487 -284 349 -117
861 -131 1259 -35 678 163 1022 678 1022 1530 0 936 -404 1451 -1230 1570
-102 15 -450 27 -540 19z"/>
<path d="M21510 14864 c-321 -28 -514 -76 -710 -174 -304 -154 -502 -391 -613
-736 -128 -396 -126 -982 4 -1374 144 -435 446 -711 905 -830 191 -50 322 -64
589 -64 266 0 393 14 588 63 495 125 813 443 938 938 49 196 63 323 63 588 0
268 -14 396 -64 592 -147 566 -537 893 -1169 979 -105 14 -445 26 -531 18z"/>
<path d="M25998 14859 c-671 -55 -1098 -364 -1267 -915 -66 -216 -86 -370 -86
-669 0 -367 45 -613 156 -853 191 -413 550 -647 1109 -724 123 -16 525 -16
650 1 687 93 1076 431 1213 1052 39 174 50 294 50 524 0 230 -11 350 -50 524
-144 655 -578 1002 -1327 1061 -145 11 -304 11 -448 -1z"/>
<path d="M12290 10195 c-356 -44 -615 -157 -811 -354 -188 -189 -298 -423
-349 -746 -20 -123 -28 -364 -19 -525 40 -721 349 -1149 936 -1301 192 -49
325 -62 598 -56 309 6 461 33 672 117 256 102 468 298 592 548 69 138 128 355
150 554 16 144 14 476 -4 615 -91 699 -486 1076 -1207 1153 -130 13 -428 11
-558 -5z"/>
<path d="M16905 10204 c-291 -30 -543 -111 -726 -235 -209 -140 -370 -370
-449 -642 -100 -343 -104 -816 -9 -1182 104 -407 358 -695 736 -834 101 -37
277 -76 412 -92 159 -18 536 -7 679 20 600 113 934 458 1043 1076 27 152 37
500 20 667 -64 613 -345 989 -856 1147 -180 56 -312 73 -575 76 -129 2 -253 1
-275 -1z"/>
<path d="M21411 10199 c-742 -83 -1135 -494 -1202 -1259 -14 -157 -7 -425 16
-577 87 -600 395 -962 934 -1098 152 -38 312 -55 526 -55 581 0 967 158 1217
497 206 280 305 761 258 1257 -68 709 -413 1099 -1080 1218 -132 23 -524 34
-669 17z"/>
<path d="M25961 10199 c-450 -50 -779 -226 -975 -522 -150 -226 -223 -495
-233 -868 -21 -731 198 -1203 665 -1438 218 -110 420 -152 762 -158 261 -5
405 8 583 53 438 111 723 372 860 789 128 389 126 972 -4 1341 -157 446 -482
700 -1009 790 -113 19 -522 27 -649 13z"/>
<path d="M30510 10199 c-645 -74 -1024 -388 -1160 -961 -47 -202 -65 -559 -39
-796 65 -604 346 -987 839 -1146 202 -65 356 -86 640 -86 455 1 773 95 1031
306 135 110 273 316 342 509 132 370 137 968 12 1350 -157 477 -526 753 -1100
820 -140 16 -439 18 -565 4z"/>
</g>
</svg>
